<?xml version="1.0" encoding="UTF-8" standalone="no"?>
<svg
   xmlns:dc="http://purl.org/dc/elements/1.1/"
   xmlns:cc="http://creativecommons.org/ns#"
   xmlns:rdf="http://www.w3.org/1999/02/22-rdf-syntax-ns#"
   xmlns:svg="http://www.w3.org/2000/svg"
   xmlns="http://www.w3.org/2000/svg"
   xmlns:sodipodi="http://sodipodi.sourceforge.net/DTD/sodipodi-0.dtd"
   xmlns:inkscape="http://www.inkscape.org/namespaces/inkscape"
   inkscape:export-ydpi="96"
   inkscape:export-xdpi="96"
   inkscape:export-filename="C:\Users\Juuso\Desktop\eightball.png"
   sodipodi:docname="eightball.svg"
   inkscape:version="1.0 (4035a4fb49, 2020-05-01)"
   id="svg8"
   version="1.1"
   viewBox="0 0 210 297"
   height="297mm"
   width="210mm">
  <defs
     id="defs2">
    <rect
       id="rect65"
       height="161.43079"
       width="86.595327"
       y="241.07711"
       x="345.31223" />
    <inkscape:path-effect
       only_selected="false"
       apply_with_weight="true"
       apply_no_weight="true"
       helper_size="0"
       steps="2"
       weight="33.333333"
       lpeversion="1"
       is_visible="true"
       id="path-effect45"
       effect="bspline" />
    <inkscape:path-effect
       only_selected="false"
       apply_with_weight="true"
       apply_no_weight="true"
       helper_size="0"
       steps="2"
       weight="33.333333"
       lpeversion="1"
       is_visible="true"
       id="path-effect41"
       effect="bspline" />
  </defs>
  <sodipodi:namedview
     inkscape:window-maximized="0"
     inkscape:window-y="218"
     inkscape:window-x="1329"
     inkscape:window-height="1198"
     inkscape:window-width="1418"
     showgrid="false"
     inkscape:document-rotation="0"
     inkscape:current-layer="layer2"
     inkscape:document-units="mm"
     inkscape:cy="497.31835"
     inkscape:cx="579.73503"
     inkscape:zoom="0.49497475"
     inkscape:pageshadow="2"
     inkscape:pageopacity="0.0"
     borderopacity="1.0"
     bordercolor="#666666"
     pagecolor="#ffffff"
     id="base" />
  <metadata
     id="metadata5">
    <rdf:RDF>
      <cc:Work
         rdf:about="">
        <dc:format>image/svg+xml</dc:format>
        <dc:type
           rdf:resource="http://purl.org/dc/dcmitype/StillImage" />
        <dc:title></dc:title>
      </cc:Work>
    </rdf:RDF>
  </metadata>
  <g
     style="display:inline;opacity:1"
     inkscape:label="Layer 2"
     id="layer2"
     inkscape:groupmode="layer">
    <ellipse
       ry="96.882072"
       rx="97.298798"
       cy="148.88278"
       cx="106.09224"
       id="path33"
       style="fill:#000000;fill-opacity:1;stroke:#000000;stroke-width:1.10662;stroke-miterlimit:4;stroke-dasharray:none" />
    <path
       d="m 173.85933,132.09367 a 34.250214,40.613277 0 0 1 -34.23156,40.61328 34.250214,40.613277 0 0 1 -34.26885,-40.56904 34.250214,40.613277 0 0 1 34.19423,-40.65746 34.250214,40.613277 0 0 1 34.3061,40.52475"
       sodipodi:arc-type="arc"
       sodipodi:open="true"
       sodipodi:end="6.2810068"
       sodipodi:start="0"
       sodipodi:ry="40.613277"
       sodipodi:rx="34.250214"
       sodipodi:cy="132.09367"
       sodipodi:cx="139.60912"
       sodipodi:type="arc"
       id="path61"
       style="fill:#ffffff;fill-opacity:1;stroke:#000000;stroke-width:1.10662;stroke-miterlimit:4;stroke-dasharray:none" />
    <g
       style="font-style:normal;font-weight:normal;font-size:88.1944px;line-height:1.4;font-family:sans-serif;letter-spacing:0.00264583px;white-space:pre;shape-inside:url(#rect65);fill:#000000;fill-opacity:1;stroke:none;stroke-width:2.86257;stroke-miterlimit:4;stroke-dasharray:none"
       id="text63"
       transform="matrix(0.38545678,-0.14959181,0.11686351,0.34235706,-42.370466,82.910725)"
       aria-label="8">
      <path
         id="path898"
         style="font-size:123.472px;line-height:1.4;stroke-width:2.86257;stroke-miterlimit:4;stroke-dasharray:none"
         d="m 384.56068,316.83541 q -8.68163,0 -13.68562,4.64225 -4.9437,4.64226 -4.9437,12.78129 0,8.13902 4.9437,12.78128 5.00399,4.64225 13.68562,4.64225 8.68162,0 13.68562,-4.64225 5.00399,-4.70255 5.00399,-12.78128 0,-8.13903 -5.00399,-12.78129 -4.94371,-4.64225 -13.68562,-4.64225 z m -12.17839,-5.18486 q -7.83758,-1.92925 -12.23868,-7.29498 -4.34081,-5.36573 -4.34081,-13.08273 0,-10.79174 7.65671,-17.0618 7.717,-6.27006 21.10117,-6.27006 13.44446,0 21.10117,6.27006 7.65671,6.27006 7.65671,17.0618 0,7.717 -4.4011,13.08273 -4.34081,5.36573 -12.1181,7.29498 8.8022,2.04983 13.68562,8.01844 4.9437,5.96862 4.9437,14.58996 0,13.08272 -8.01845,20.07625 -7.95815,6.99353 -22.84955,6.99353 -14.8914,0 -22.90984,-6.99353 -7.95816,-6.99353 -7.95816,-20.07625 0,-8.62134 4.9437,-14.58996 4.94371,-5.96861 13.74591,-8.01844 z m -4.46139,-19.23221 q 0,6.99353 4.34081,10.91232 4.4011,3.91879 12.29897,3.91879 7.83758,0 12.23868,-3.91879 4.46139,-3.91879 4.46139,-10.91232 0,-6.99354 -4.46139,-10.91232 -4.4011,-3.91879 -12.23868,-3.91879 -7.89787,0 -12.29897,3.91879 -4.34081,3.91878 -4.34081,10.91232 z" />
    </g>
  </g>
</svg>
